<svg width="391" height="325" viewBox="0 0 391 325" fill="none" xmlns="http://www.w3.org/2000/svg">
<path d="M225.71 34.271C214.06 34.271 204.615 24.6954 204.615 12.8831V1.02556C204.615 0.459885 204.164 0 203.604 0H203.21C202.652 0 202.198 0.457726 202.198 1.02556V12.8853C202.198 24.6976 192.754 34.2731 181.103 34.2731H169.885C169.327 34.2731 168.873 34.7309 168.873 35.2987C168.873 35.8644 169.325 36.3243 169.885 36.3243H181.103C192.754 36.3243 202.198 45.8998 202.198 57.7121V69.5612C202.198 70.1269 202.65 70.5868 203.21 70.5868H203.604C204.162 70.5868 204.615 70.129 204.615 69.5612V56.9241C204.615 45.5479 213.713 36.3243 224.933 36.3243H239.342C239.9 36.3243 240.353 35.8665 240.353 35.2987C240.353 34.733 239.902 34.2731 239.342 34.2731H225.713L225.71 34.271Z" fill="#4453FF"/>
<path d="M186.103 173.573L17.8537 228.486C14.381 229.62 14.1198 234.432 17.4494 235.935L207.516 321.709C211.242 323.39 215.493 323.478 219.286 321.952L381.226 256.786C384.57 255.44 384.568 250.706 381.223 249.363L192.931 173.799C190.752 172.924 188.335 172.844 186.103 173.573Z" fill="#ADB4FF"/>
<path d="M203.719 75.0527V90.2423" stroke="#4453FF" stroke-width="2.5" stroke-linecap="round"/>
<path d="M203.719 96.498L203.719 122.41" stroke="#4453FF" stroke-width="2.5" stroke-linecap="round"/>
<path d="M174.347 148.161L9.09832 193.003C6.36677 193.744 6.08686 197.508 8.67874 198.646L202.785 283.802C206.521 285.441 210.763 285.487 214.535 283.93L375.392 217.525C377.964 216.463 377.83 212.776 375.189 211.903L182.982 148.395C180.189 147.472 177.186 147.391 174.347 148.161Z" fill="#EFEFF3" stroke="#4453FF" stroke-width="2.5" stroke-linecap="round"/>
<path d="M180.634 137.201L8.77507 192.411C6.00969 193.3 5.99471 197.207 8.7532 198.117L202.012 261.842C205.419 262.966 209.116 262.831 212.433 261.462L373.539 194.954C376.169 193.868 375.951 190.073 373.214 189.295L189.321 137.053C186.474 136.244 183.452 136.295 180.634 137.201Z" fill="#EFEFF3" stroke="#4453FF" stroke-width="2.5" stroke-linecap="round"/>
<path d="M203.719 127.77V152.788" stroke="#4453FF" stroke-width="2.5" stroke-linecap="round"/>
<path d="M203.719 161.723V197.463" stroke="#4453FF" stroke-width="2.5" stroke-linecap="round"/>
<path d="M203.719 197.801L131.096 183.755C129.96 183.535 129.421 185.099 130.45 185.627L174.736 208.333C175.401 208.674 176.192 208.191 176.192 207.443V179.472C176.192 178.717 175.388 178.235 174.722 178.589L128.036 203.447C127.099 203.946 127.482 205.368 128.543 205.329L151.724 204.465" stroke="#4453FF" stroke-width="2.5" stroke-linecap="round"/>
<path d="M27.6987 191.655V183.876C27.6987 183.451 27.4301 183.072 27.0291 182.932L23.2312 181.603L20.094 180.505C19.4438 180.277 18.7637 180.76 18.7637 181.449V185.847L18.7637 188.974" stroke="#4453FF" stroke-width="2.5" stroke-linecap="round"/>
<path d="M44.6753 186.741V178.962C44.6753 178.537 44.4067 178.158 44.0056 178.018L40.2078 176.689L37.0706 175.591C36.4204 175.363 35.7402 175.846 35.7402 176.534V180.933V183.613" stroke="#4453FF" stroke-width="2.5" stroke-linecap="round"/>
<path d="M61.6518 182.274V174.495C61.6518 174.07 61.3833 173.691 60.9822 173.551L57.1843 172.222L54.0471 171.124C53.397 170.896 52.7168 171.379 52.7168 172.068V176.466V177.806" stroke="#4453FF" stroke-width="2.5" stroke-linecap="round"/>
<path d="M78.6284 176.912V169.134C78.6284 168.709 78.3598 168.33 77.9587 168.19L74.1609 166.861L71.0237 165.762C70.3735 165.535 69.6934 166.018 69.6934 166.706V171.105V172.445" stroke="#4453FF" stroke-width="2.5" stroke-linecap="round"/>
<path d="M95.605 171.551V163.772C95.605 163.347 95.3364 162.969 94.9353 162.828L91.1374 161.499L88.0003 160.401C87.3501 160.174 86.6699 160.656 86.6699 161.345V165.743V167.084" stroke="#4453FF" stroke-width="2.5" stroke-linecap="round"/>
<path d="M112.582 166.19V158.411C112.582 157.986 112.313 157.607 111.912 157.467L108.114 156.138L104.977 155.04C104.327 154.812 103.646 155.295 103.646 155.984V160.382V161.722" stroke="#4453FF" stroke-width="2.5" stroke-linecap="round"/>
<path d="M129.558 160.83V153.052C129.558 152.627 129.29 152.248 128.888 152.108L125.091 150.778L121.953 149.68C121.303 149.453 120.623 149.935 120.623 150.624V155.023V156.363" stroke="#4453FF" stroke-width="2.5" stroke-linecap="round"/>
<path d="M146.535 155.469V147.69C146.535 147.265 146.266 146.887 145.865 146.746L142.067 145.417L138.93 144.319C138.28 144.092 137.6 144.574 137.6 145.263V149.661V151.002" stroke="#4453FF" stroke-width="2.5" stroke-linecap="round"/>
<path d="M163.511 150.108V142.329C163.511 141.904 163.243 141.525 162.842 141.385L159.044 140.056L155.907 138.958C155.256 138.73 154.576 139.213 154.576 139.902V144.3V145.64" stroke="#4453FF" stroke-width="2.5" stroke-linecap="round"/>
<path d="M180.488 144.746V136.968C180.488 136.543 180.219 136.164 179.818 136.024L176.02 134.694L172.883 133.596C172.233 133.369 171.553 133.851 171.553 134.54V138.939V139.832" stroke="#4453FF" stroke-width="2.5" stroke-linecap="round"/>
<ellipse cx="180.488" cy="145.641" rx="3.57401" ry="1.78701" fill="#4453FF"/>
<ellipse cx="163.512" cy="151.002" rx="3.57401" ry="1.78701" fill="#4453FF"/>
<ellipse cx="146.535" cy="156.361" rx="3.57401" ry="1.78701" fill="#4453FF"/>
<ellipse cx="129.558" cy="160.83" rx="3.57401" ry="1.78701" fill="#4453FF"/>
<ellipse cx="112.582" cy="166.191" rx="3.57401" ry="1.78701" fill="#4453FF"/>
<ellipse cx="95.6053" cy="171.553" rx="3.57401" ry="1.78701" fill="#4453FF"/>
<ellipse cx="78.6287" cy="176.912" rx="3.57401" ry="1.78701" fill="#4453FF"/>
<ellipse cx="61.6521" cy="182.273" rx="3.57401" ry="1.78701" fill="#4453FF"/>
<ellipse cx="44.6756" cy="187.635" rx="3.57401" ry="1.78701" fill="#4453FF"/>
<ellipse cx="27.699" cy="192.996" rx="3.57401" ry="1.78701" fill="#4453FF"/>
<path d="M324.926 205.325C325.126 205.24 325.348 205.221 325.56 205.273L353.341 212.118C354.254 212.342 354.381 213.588 353.532 213.992L347.003 217.101C346.794 217.201 346.555 217.224 346.33 217.168L318.28 210.131C317.351 209.898 317.249 208.619 318.129 208.242L324.926 205.325Z" fill="#4453FF"/>
<path d="M311.527 211.268C311.725 211.183 311.945 211.164 312.155 211.214L334.55 216.594C335.466 216.814 335.597 218.064 334.746 218.469L328.238 221.569C328.03 221.668 327.793 221.692 327.569 221.637L304.903 216.066C303.972 215.837 303.866 214.555 304.748 214.176L311.527 211.268Z" fill="#4453FF"/>
</svg>
