<svg width="545" height="249" viewBox="0 0 545 249" fill="none" xmlns="http://www.w3.org/2000/svg">
<path d="M397 153.726C397 153.136 397.517 152.676 398.104 152.733C485.389 161.233 544.999 178.314 545 198.002C545 226.168 422.998 249.002 272.5 249.002C122.002 249.002 0 226.168 0 198.002C0.00060404 178.389 59.1554 161.364 145.894 152.831C146.482 152.773 147 153.234 147 153.824C147 154.339 146.608 154.77 146.096 154.82C121.691 157.221 99.4841 160.293 80.1816 163.905C55.586 168.508 35.8064 173.969 22.2236 179.979C15.4254 182.988 10.2904 186.085 6.88574 189.199C3.47721 192.317 2.00011 195.259 2 198.002C2 200.744 3.4772 203.687 6.88574 206.805C10.2904 209.919 15.4254 213.016 22.2236 216.024C35.8064 222.035 55.586 227.495 80.1816 232.099C129.34 241.299 197.336 247.002 272.5 247.002C347.664 247.002 415.66 241.299 464.818 232.099C489.414 227.495 509.194 222.035 522.776 216.024C529.575 213.016 534.71 209.919 538.114 206.805C541.523 203.687 543 200.744 543 198.002C543 195.259 541.523 192.317 538.114 189.199C534.71 186.085 529.575 182.988 522.776 179.979C509.194 173.969 489.414 168.508 464.818 163.905C445.253 160.243 422.703 157.136 397.905 154.721C397.393 154.672 397 154.241 397 153.726Z" fill="#4453FF"/>
<path d="M397 140.998C397 140.408 397.518 139.947 398.105 140.004C485.39 148.504 545 165.586 545 185.274C545 213.441 422.998 236.274 272.5 236.274C122.002 236.274 0 213.441 0 185.274C0.000249287 165.661 59.1551 148.636 145.894 140.103C146.482 140.045 147 140.506 147 141.097C147 141.611 146.608 142.042 146.096 142.092C121.691 144.493 99.4841 147.565 80.1816 151.178C55.586 155.781 35.8064 161.242 22.2236 167.252C15.4254 170.26 10.2904 173.358 6.88574 176.472C3.47714 179.589 2.00004 182.532 2 185.274C2 188.017 3.47713 190.96 6.88574 194.077C10.2904 197.191 15.4254 200.289 22.2236 203.297C35.8064 209.307 55.586 214.768 80.1816 219.371C129.34 228.571 197.336 234.274 272.5 234.274C347.664 234.274 415.66 228.571 464.818 219.371C489.414 214.768 509.194 209.307 522.776 203.297C529.575 200.289 534.71 197.191 538.114 194.077C541.523 190.96 543 188.017 543 185.274C543 182.532 541.523 179.589 538.114 176.472C534.71 173.358 529.575 170.26 522.776 167.252C509.194 161.242 489.414 155.781 464.818 151.178C445.253 147.516 422.703 144.409 397.905 141.994C397.393 141.944 397 141.513 397 140.998Z" fill="#4453FF"/>
<path d="M277.994 10C279.396 10 280.526 11.1434 280.526 12.5498V42.0312C280.526 71.4001 304.172 95.2078 333.341 95.208L333.347 95.2129H367.469C368.871 95.2129 370.001 96.3564 370.001 97.7627C370.001 99.1745 368.866 100.312 367.469 100.312H331.396C327.38 100.312 323.472 100.782 319.725 101.668C349.425 132.025 361.149 168.087 345.802 189.836C326.976 216.51 274.539 211.55 228.688 178.745V178.751C182.831 145.946 160.923 97.7294 179.749 71.0498C194.812 49.7023 231.391 48.6156 268.901 65.8359C272.467 58.6752 274.476 50.5919 274.476 42.0361V12.5498C274.476 11.138 275.611 10 277.008 10H277.994ZM183.203 165C183.368 165 183.501 165.137 183.501 165.305V168.833C183.501 172.347 186.275 175.196 189.698 175.196H189.79V172.305C189.79 172.136 189.924 172 190.088 172H190.203C190.368 172 190.501 172.137 190.501 172.305V175.196H193.703C193.868 175.196 194 175.334 194 175.502C194 175.671 193.867 175.806 193.703 175.807H190.501V175.833C190.501 179.347 193.275 182.196 196.698 182.196H200.703C200.868 182.196 201 182.334 201 182.502C201 182.671 200.867 182.806 200.703 182.807H196.47C193.173 182.807 190.501 185.551 190.501 188.936V192.695C190.501 192.864 190.367 193 190.203 193H190.088C189.923 193 189.79 192.863 189.79 192.695V189.17C189.79 185.656 187.016 182.807 183.593 182.807H183.501V185.695C183.501 185.864 183.367 186 183.203 186H183.088C182.923 186 182.79 185.863 182.79 185.695V182.807H180.297C180.133 182.806 180 182.67 180 182.502C180 182.333 180.133 182.196 180.297 182.196H182.79V182.17C182.79 178.656 180.016 175.807 176.593 175.807H173.297C173.133 175.806 173 175.67 173 175.502C173 175.333 173.133 175.196 173.297 175.196H176.593C180.016 175.196 182.79 172.347 182.79 168.833V165.305C182.79 165.136 182.924 165 183.088 165H183.203ZM318.753 101.907C296.776 107.567 280.526 127.64 280.526 151.53V178.498C305.724 186.468 328.173 183.962 338.135 169.845C349.719 153.432 341.02 126.129 318.753 101.907ZM189.47 175.807C186.173 175.807 183.501 178.551 183.501 181.936V182.196H183.593C187.016 182.196 189.79 179.347 189.79 175.833V175.807H189.47ZM195.93 100.312C201.141 119.503 217.551 141.42 241.585 158.615C252.408 166.358 263.62 172.314 274.476 176.4V153.489C274.475 124.12 250.829 100.312 221.66 100.312H195.93ZM268.68 66.2783C238.896 53.3949 210.778 54.2243 199.284 70.5127C194.537 77.2376 193.198 85.7917 194.8 95.2129H221.66C242.156 95.2129 259.925 83.4579 268.68 66.2783ZM324.604 0C324.824 0 325.001 0.182836 325.001 0.407227V5.11035C325.001 9.72375 328.587 13.4742 333.054 13.5889V9.40723C333.054 9.182 333.232 9.00004 333.45 9H333.604C333.824 9 334.001 9.18284 334.001 9.40723V13.5957H338.604C338.823 13.5957 339 13.7776 339 14.002C339 14.2272 338.822 14.4092 338.604 14.4092H334.009C334.162 18.9564 337.798 22.5947 342.265 22.5947V22.5957H347.604C347.823 22.5957 348 22.7776 348 23.002C348 23.2272 347.822 23.4092 347.604 23.4092H341.96C337.565 23.4092 334.001 27.0675 334.001 31.5801V36.5928C334.001 36.818 333.823 37 333.604 37H333.45C333.231 37 333.054 36.8171 333.054 36.5928V31.8926C333.054 27.2793 329.467 23.5286 325.001 23.4141V27.5928C325.001 27.818 324.823 28 324.604 28H324.45C324.231 28 324.054 27.8171 324.054 27.5928V23.4092H320.396C320.177 23.4092 320 23.2263 320 23.002C320 22.7768 320.178 22.5957 320.396 22.5957H324.047C323.894 18.0479 320.258 14.4094 315.791 14.4092H311.396C311.177 14.4092 311 14.2263 311 14.002C311 13.7768 311.178 13.5957 311.396 13.5957H315.791C320.355 13.5955 324.054 9.79684 324.054 5.11133V0.407227C324.054 0.182001 324.232 3.60916e-05 324.45 0H324.604ZM332.96 14.4092C328.565 14.4092 325.001 18.0675 325.001 22.5801V22.5898C329.371 22.4777 332.895 18.8852 333.046 14.4092H332.96Z" fill="#4453FF"/>
<path d="M279.066 108H276.163C275.641 108 275.207 107.599 275.166 107.079L273.585 87.0788C273.539 86.4973 273.999 86 274.582 86H280.429C281.009 86 281.467 86.4903 281.427 87.068L280.064 107.068C280.028 107.593 279.592 108 279.066 108Z" fill="#EFEFF3"/>
<path d="M279.06 115H276.299C275.747 115 275.299 114.552 275.299 114L275.299 112C275.299 111.448 275.747 111 276.299 111L279.06 111C279.612 111 280.059 111.448 280.06 112L280.06 114C280.06 114.552 279.612 115 279.06 115Z" fill="#EFEFF3"/>
</svg>
