<svg width="595" height="141" viewBox="0 0 595 141" fill="none" xmlns="http://www.w3.org/2000/svg">
<path d="M113.418 92.8601C111.761 92.8601 110.418 91.5169 110.418 89.8601V76.5103C110.418 75.7492 110.707 75.0166 111.227 74.4608L176.1 5.11651C176.667 4.51015 177.46 4.16602 178.29 4.16602H199.918C201.575 4.16602 202.918 5.50916 202.918 7.16602V107.833C202.918 109.49 201.575 110.833 199.918 110.833H185.67C184.013 110.833 182.67 109.49 182.67 107.833V95.8601C182.67 94.2032 181.327 92.8601 179.67 92.8601H113.418ZM141.086 70.2735C139.289 72.1893 140.647 75.3258 143.274 75.3258H179.67C181.327 75.3258 182.67 73.9827 182.67 72.3258V33.5215C182.67 30.8022 179.342 29.4858 177.482 31.4691L141.086 70.2735Z" fill="#4453FF"/>
<path d="M395.084 92.8601C393.427 92.8601 392.084 91.5169 392.084 89.8601V76.5103C392.084 75.7492 392.373 75.0166 392.893 74.4608L457.766 5.11651C458.333 4.51015 459.126 4.16602 459.956 4.16602H481.584C483.241 4.16602 484.584 5.50916 484.584 7.16602V107.833C484.584 109.49 483.241 110.833 481.584 110.833H467.336C465.679 110.833 464.336 109.49 464.336 107.833V95.8601C464.336 94.2032 462.993 92.8601 461.336 92.8601H395.084ZM422.752 70.2735C420.955 72.1893 422.313 75.3258 424.94 75.3258H461.336C462.993 75.3258 464.336 73.9827 464.336 72.3258V33.5215C464.336 30.8022 461.008 29.4858 459.148 31.4691L422.752 70.2735Z" fill="#4453FF"/>
<path d="M270.424 101.934C307.878 128.714 350.711 132.764 366.089 110.988C381.467 89.2073 363.572 49.8448 326.113 23.0641C288.655 -3.71219 245.827 -7.76589 230.449 14.0145C215.071 35.7949 232.966 75.1574 270.424 101.938V101.934ZM246.406 13.5763C258.644 -3.75601 293.951 0.350274 325.273 22.7442C356.595 45.1381 372.064 77.3398 359.827 94.6677C347.589 112 312.282 107.894 280.959 85.4998C249.642 63.1059 234.168 30.9042 246.406 13.5763Z" fill="#4453FF"/>
<rect x="310.418" y="7.5" width="31.6667" height="34.1667" fill="#F6F6F9"/>
<path d="M332.102 66.5508V61.1508C332.102 59.7175 332.996 59.0008 334.785 59.0008H339.768V56.0508H342.085V68.7008H334.785C332.996 68.7008 332.102 67.9841 332.102 66.5508ZM334.418 66.2341C334.418 66.5897 334.64 66.7675 335.085 66.7675H339.768V60.9341H335.085C334.64 60.9341 334.418 61.1119 334.418 61.4674V66.2341Z" fill="#4453FF"/>
<path d="M320.025 68.7V59H327.325C329.114 59 330.009 59.7167 330.009 61.15V68.7H327.692V61.4667C327.692 61.1111 327.464 60.9333 327.009 60.9333H322.342V68.7H320.025Z" fill="#4453FF"/>
<path d="M307.965 66.55V59H310.282V66.2333C310.282 66.5889 310.504 66.7667 310.948 66.7667H315.798V59H318.115V68.7H310.648C308.859 68.7 307.965 67.9833 307.965 66.55Z" fill="#4453FF"/>
<path d="M295.758 66.55V61.15C295.758 59.7167 296.652 59 298.441 59H303.224C305.013 59 305.908 59.7167 305.908 61.15V66.55C305.908 67.9833 305.013 68.7 303.224 68.7H298.441C296.652 68.7 295.758 67.9833 295.758 66.55ZM298.074 66.2333C298.074 66.5889 298.297 66.7667 298.741 66.7667H302.908C303.363 66.7667 303.591 66.5889 303.591 66.2333V61.4667C303.591 61.1111 303.363 60.9333 302.908 60.9333H298.741C298.297 60.9333 298.074 61.1111 298.074 61.4667V66.2333Z" fill="#4453FF"/>
<path d="M283.014 68.7008V56.0508H293.68V58.0341H285.33V61.1341H293.564V63.1174H285.33V68.7008H283.014Z" fill="#4453FF"/>
<path d="M307.297 45.7168V35.2168H309.614V38.1668H313.23V40.1001H309.614V45.4001C309.614 45.7557 309.836 45.9335 310.28 45.9335H313.23V47.8668H309.98C308.191 47.8668 307.297 47.1501 307.297 45.7168Z" fill="#4453FF"/>
<path d="M295.09 45.718V40.318C295.09 38.8846 295.984 38.168 297.773 38.168H302.557C304.345 38.168 305.24 38.8846 305.24 40.318V45.718C305.24 47.1513 304.345 47.868 302.557 47.868H297.773C295.984 47.868 295.09 47.1513 295.09 45.718ZM297.407 45.4013C297.407 45.7569 297.629 45.9346 298.073 45.9346H302.24C302.695 45.9346 302.923 45.7569 302.923 45.4013V40.6346C302.923 40.2791 302.695 40.1013 302.24 40.1013H298.073C297.629 40.1013 297.407 40.2791 297.407 40.6346V45.4013Z" fill="#4453FF"/>
<path d="M283.014 47.868V38.168H290.314C292.103 38.168 292.997 38.8846 292.997 40.318V47.868H290.68V40.6346C290.68 40.2791 290.453 40.1013 289.997 40.1013H285.33V47.868H283.014Z" fill="#4453FF"/>
<path d="M318.838 24.884V19.484C318.838 18.0507 319.732 17.334 321.521 17.334H325.921C327.71 17.334 328.605 18.0507 328.605 19.484V23.1673H321.155V24.5673C321.155 24.9229 321.377 25.1007 321.821 25.1007H328.221V27.034H321.521C319.732 27.034 318.838 26.3173 318.838 24.884ZM321.155 21.234H326.288V19.8007C326.288 19.4451 326.06 19.2673 325.605 19.2673H321.821C321.377 19.2673 321.155 19.4451 321.155 19.8007V21.234Z" fill="#4453FF"/>
<path d="M306.711 24.884V19.484C306.711 18.0507 307.605 17.334 309.394 17.334H316.861V28.9173C316.861 30.3395 315.966 31.0507 314.178 31.0507H307.094V29.1173H313.678C314.255 29.1173 314.544 28.8895 314.544 28.434V27.034H309.394C307.605 27.034 306.711 26.3173 306.711 24.884ZM309.028 24.5673C309.028 24.9229 309.25 25.1007 309.694 25.1007H314.544V19.2673H309.694C309.25 19.2673 309.028 19.4451 309.028 19.8007V24.5673Z" fill="#4453FF"/>
<path d="M294.873 24.884V23.3673C294.873 21.9451 295.767 21.234 297.556 21.234H302.323V19.8007C302.323 19.4451 302.101 19.2673 301.656 19.2673H295.64V17.334H301.973C303.762 17.334 304.656 18.0507 304.656 19.484V27.034H297.556C295.767 27.034 294.873 26.3173 294.873 24.884ZM297.206 24.5673C297.206 24.9229 297.429 25.1007 297.873 25.1007H302.323V23.1673H297.873C297.429 23.1673 297.206 23.3451 297.206 23.7007V24.5673Z" fill="#4453FF"/>
<path d="M283.014 31.0507V17.334H290.48C292.269 17.334 293.164 18.0507 293.164 19.484V24.884C293.164 26.3173 292.269 27.034 290.48 27.034H285.33V31.0507H283.014ZM285.33 25.1007H290.164C290.619 25.1007 290.847 24.9229 290.847 24.5673V19.8007C290.847 19.4451 290.619 19.2673 290.164 19.2673H285.33V25.1007Z" fill="#4453FF"/>
<path d="M515.833 81.0218C515.833 80.4179 516.375 79.9531 516.973 80.0327C565.432 86.4814 595 95.0713 595 104.504C595 124.524 461.805 140.754 297.5 140.754C133.195 140.754 0 124.524 0 104.504C0.000441865 95.1256 29.2291 86.5805 77.1918 80.1445C77.7907 80.0641 78.333 80.5289 78.333 81.1333C78.333 81.6344 77.959 82.0585 77.4623 82.1251C55.1422 85.1201 36.9563 88.5635 23.9326 92.3154C16.4661 94.4664 10.8126 96.6869 7.06738 98.917C3.17067 101.237 2.00012 103.164 2 104.504C2 105.844 3.17054 107.77 7.06738 110.091C10.8126 112.321 16.4661 114.541 23.9326 116.692C38.8353 120.986 60.497 124.876 87.3779 128.151C141.112 134.699 215.402 138.754 297.5 138.754C379.598 138.754 453.888 134.699 507.622 128.151C534.503 124.876 556.165 120.986 571.067 116.692C578.534 114.541 584.187 112.321 587.933 110.091C591.829 107.77 593 105.844 593 104.504C593 103.164 591.829 101.237 587.933 98.917C584.187 96.6869 578.534 94.4664 571.067 92.3154C557.882 88.517 539.406 85.0348 516.705 82.014C516.208 81.9478 515.833 81.5235 515.833 81.0218Z" fill="#4453FF"/>
</svg>
