<svg width="56" height="56" viewBox="0 0 56 56" fill="none" xmlns="http://www.w3.org/2000/svg">
<path d="M42.8746 12.5C44.0482 12.5 45 13.4343 45 14.5864V36.4498L44.9884 36.6631C44.8866 37.6447 44.0918 38.425 43.0919 38.5248L42.8746 38.5362H18.2792L18.0644 38.5464C17.5658 38.5962 17.0981 38.8183 16.7475 39.1762L12.8279 43.1789L12.6985 43.2919C12.0243 43.7952 11.0005 43.3349 11 42.455V14.5864C11 13.5062 11.8364 12.6168 12.9081 12.5102L13.1254 12.5H42.8746ZM13.9145 37.9406L14.6467 37.1939L14.8291 37.0162C15.7609 36.1568 16.9942 35.6753 18.2792 35.6752H42.0855V15.361H13.9145V37.9406ZM28.0382 30.1284C28.8962 30.1286 29.5918 30.8111 29.5918 31.6535C29.5917 32.4958 28.8962 33.1784 28.0382 33.1786H27.958C27.0999 33.1784 26.4044 32.4958 26.4043 31.6535C26.4043 30.8111 27.0999 30.1286 27.958 30.1284H28.0382ZM27.9981 18.264C28.8026 18.264 29.4543 18.9029 29.4547 19.6926V26.8445C29.4547 27.6345 28.8028 28.2756 27.9981 28.2756C27.1935 28.2756 26.5418 27.6354 26.5415 26.8458V19.6938C26.5415 18.9039 27.1933 18.264 27.9981 18.264Z" fill="#FF6767"/>
</svg>
