<svg width="36" height="36" viewBox="0 0 36 36" fill="none" xmlns="http://www.w3.org/2000/svg">
<path d="M12.6094 12.171C13.1067 12.171 13.5107 12.5648 13.5107 13.0514C13.5104 13.5376 13.1065 13.9317 12.6094 13.9317H10.6369V26.7394H12.6094C13.1066 26.7394 13.5105 27.1333 13.5107 27.6197C13.5104 28.1059 13.1065 28.5 12.6094 28.5H6.89982C6.40275 28.5 6.00035 28.1059 6 27.6197C6.0002 27.1333 6.40266 26.7394 6.89982 26.7394H8.83721V13.9317H6.89982C6.40275 13.9317 6.00035 13.5376 6 13.0514C6 12.5648 6.40254 12.171 6.89982 12.171H12.6094ZM18.0127 14.455C18.3012 13.458 19.7451 13.4581 20.0337 14.455L20.9349 17.5691C21.0278 17.8895 21.2736 18.1474 21.5944 18.2587L24.7921 19.367C25.7249 19.6905 25.7251 20.9808 24.7921 21.304L21.5944 22.4123C21.2736 22.5237 21.0277 22.78 20.9349 23.1005L20.0337 26.2146C19.7631 27.1485 18.4781 27.2076 18.0801 26.391L18.0127 26.2146L17.1114 23.1005C17.0302 22.8201 16.8324 22.5877 16.5692 22.4596L16.452 22.4123L13.2542 21.304C12.3213 20.9808 12.3215 19.6905 13.2542 19.367L16.452 18.2587C16.773 18.1475 17.0185 17.8897 17.1114 17.5691L18.0127 14.455ZM19.0225 18.4408C18.6869 19.2557 18.0104 19.8988 17.1539 20.1957L16.7524 20.3348L17.1539 20.4739C18.0103 20.7708 18.6869 21.414 19.0225 22.2288C19.358 21.4134 20.0369 20.7708 20.8939 20.4739L21.294 20.3348L20.8939 20.1957C20.0369 19.8988 19.358 19.2562 19.0225 18.4408ZM24.883 7.96297C25.0622 7.34574 25.957 7.34561 26.136 7.96297L26.8101 10.2957C26.8678 10.4941 27.0203 10.6526 27.219 10.7215L29.5668 11.5359C30.1444 11.7365 30.1444 12.5368 29.5668 12.7374L29.0685 12.9094L27.219 13.5503C27.0199 13.6193 26.8677 13.7787 26.8101 13.9776L26.2445 15.9303L26.136 16.3088L26.0935 16.4178C25.8634 16.8904 25.154 16.8905 24.924 16.4178L24.883 16.3088L24.7731 15.9303L24.2089 13.9776C24.1658 13.8284 24.0688 13.7009 23.9392 13.6177L23.8 13.5503L21.4508 12.7374C20.8729 12.5369 20.8731 11.7365 21.4508 11.5359L21.9476 11.3624L23.8 10.7215C23.9489 10.6697 24.0725 10.5678 24.1488 10.4362L24.2089 10.2957L24.883 7.96297ZM25.5088 11.0498C25.2632 11.5378 24.8347 11.9214 24.3012 12.1065L24.2133 12.1352L24.3012 12.1667C24.8339 12.3516 25.2631 12.7335 25.5088 13.2205C25.7546 12.7331 26.1846 12.3515 26.7178 12.1667L26.8043 12.1352L26.7178 12.1065C26.184 11.9215 25.7545 11.5381 25.5088 11.0498Z" fill="#4453FF"/>
</svg>
