<svg width="24" height="24" viewBox="0 0 24 24" fill="none" xmlns="http://www.w3.org/2000/svg">
<path d="M8.40628 8.11402C8.7378 8.11402 9.00713 8.37656 9.00713 8.7009C9.0069 9.02504 8.73766 9.28778 8.40628 9.28778H7.09123V17.8262H8.40628C8.73772 17.8262 9.007 18.0889 9.00713 18.4131C9.0069 18.7373 8.73766 19 8.40628 19H4.59988C4.2685 19 4.00023 18.7373 4 18.4131C4.00013 18.0889 4.26844 17.8262 4.59988 17.8262H5.89148V9.28778H4.59988C4.2685 9.28778 4.00023 9.02504 4 8.7009C4 8.37656 4.26836 8.11402 4.59988 8.11402H8.40628ZM12.0085 9.63666C12.2008 8.97202 13.1634 8.97208 13.3558 9.63666L13.9566 11.7127C14.0185 11.9263 14.1824 12.0983 14.3963 12.1725L16.5281 12.9113C17.1499 13.127 17.1501 13.9872 16.5281 14.2027L14.3963 14.9415C14.1824 15.0158 14.0185 15.1867 13.9566 15.4003L13.3558 17.4764C13.1754 18.099 12.3188 18.1384 12.0534 17.594L12.0085 17.4764L11.4076 15.4003C11.3535 15.2134 11.2216 15.0585 11.0461 14.9731L10.968 14.9415L8.83616 14.2027C8.2142 13.9872 8.21434 13.127 8.83616 12.9113L10.968 12.1725C11.182 12.0983 11.3457 11.9264 11.4076 11.7127L12.0085 9.63666ZM12.6816 12.2939C12.4579 12.8371 12.007 13.2659 11.436 13.4638L11.1683 13.5565L11.436 13.6492C12.0069 13.8472 12.4579 14.276 12.6816 14.8192C12.9053 14.2756 13.358 13.8472 13.9293 13.6492L14.196 13.5565L13.9293 13.4638C13.3579 13.2659 12.9053 12.8375 12.6816 12.2939ZM16.5887 5.30865C16.7081 4.89716 17.3047 4.89707 17.424 5.30865L17.8734 6.86379C17.9119 6.99606 18.0135 7.10173 18.146 7.14767L19.7112 7.69059C20.0963 7.82432 20.0963 8.35785 19.7112 8.49157L19.379 8.60627L18.146 9.03353C18.0133 9.07952 17.9118 9.18582 17.8734 9.31837L17.4963 10.6202L17.424 10.8726L17.3957 10.9452C17.2423 11.2603 16.7694 11.2603 16.616 10.9452L16.5887 10.8726L16.5154 10.6202L16.1392 9.31837C16.1105 9.21892 16.0459 9.13393 15.9595 9.07845L15.8667 9.03353L14.3005 8.49157C13.9153 8.35793 13.9154 7.82434 14.3005 7.69059L14.6317 7.57493L15.8667 7.14767C15.9659 7.11312 16.0483 7.04518 16.0992 6.95746L16.1392 6.86379L16.5887 5.30865ZM17.0058 7.36656C16.8421 7.69184 16.5564 7.94763 16.2008 8.07101L16.1422 8.09012L16.2008 8.11115C16.5559 8.23441 16.8421 8.48901 17.0058 8.81369C17.1697 8.48875 17.4564 8.23436 17.8119 8.11115L17.8695 8.09012L17.8119 8.07101C17.456 7.94768 17.1696 7.69204 17.0058 7.36656Z" fill="currentColor"/>
</svg>
