<svg width="40" height="40" viewBox="0 0 40 40" fill="none" xmlns="http://www.w3.org/2000/svg">
<path d="M15.1602 13.6159C15.6989 13.6159 16.1366 14.0472 16.1366 14.5801C16.1362 15.1126 15.6987 15.5442 15.1602 15.5442H13.0233V29.5717H15.1602C15.6988 29.5717 16.1364 30.0032 16.1366 30.5358C16.1362 31.0684 15.6987 31.5 15.1602 31.5H8.9748C8.43632 31.5 8.00037 31.0684 8 30.5358C8.00021 30.0032 8.43622 29.5717 8.9748 29.5717H11.0736V15.5442H8.9748C8.43632 15.5442 8.00037 15.1126 8 14.5801C8 14.0472 8.43608 13.6159 8.9748 13.6159H15.1602ZM21.0138 16.1174C21.3263 15.0255 22.8905 15.0256 23.2031 16.1174L24.1795 19.5281C24.2801 19.879 24.5464 20.1615 24.894 20.2834L28.3582 21.4972C29.3686 21.8515 29.3689 23.2647 28.3582 23.6187L24.894 24.8325C24.5464 24.9545 24.28 25.2353 24.1795 25.5863L23.2031 28.9969C22.91 30.0198 21.518 30.0845 21.0868 29.1901L21.0138 28.9969L20.0374 25.5863C19.9494 25.2792 19.7351 25.0246 19.45 24.8843L19.323 24.8325L15.8588 23.6187C14.8481 23.2646 14.8483 21.8515 15.8588 21.4972L19.323 20.2834C19.6708 20.1615 19.9368 19.8792 20.0374 19.5281L21.0138 16.1174ZM22.1077 20.4828C21.7441 21.3753 21.0113 22.0796 20.0834 22.4048L19.6484 22.5572L20.0834 22.7095C21.0112 23.0347 21.7441 23.7391 22.1077 24.6315C22.4712 23.7385 23.2067 23.0347 24.1351 22.7095L24.5685 22.5572L24.1351 22.4048C23.2066 22.0796 22.4712 21.3758 22.1077 20.4828ZM28.4566 9.00707C28.6507 8.33105 29.6201 8.33091 29.814 9.00707L30.5443 11.5619C30.6068 11.7792 30.7719 11.9528 30.9873 12.0283L33.5307 12.9202C34.1564 13.14 34.1565 14.0165 33.5307 14.2362L32.9909 14.4246L30.9873 15.1265C30.7716 15.2021 30.6066 15.3767 30.5443 15.5945L29.9315 17.7332L29.814 18.1478L29.768 18.2671C29.5187 18.7847 28.7502 18.7849 28.501 18.2671L28.4566 18.1478L28.3375 17.7332L27.7263 15.5945C27.6796 15.4311 27.5746 15.2914 27.4342 15.2003L27.2833 15.1265L24.7384 14.2362C24.1123 14.0166 24.1125 13.14 24.7384 12.9202L25.2766 12.7302L27.2833 12.0283C27.4446 11.9715 27.5785 11.8599 27.6612 11.7158L27.7263 11.5619L28.4566 9.00707ZM29.1345 12.3879C28.8685 12.9223 28.4042 13.3425 27.8263 13.5452L27.731 13.5766L27.8263 13.6112C28.4034 13.8137 28.8683 14.2319 29.1345 14.7653C29.4008 14.2315 29.8667 13.8136 30.4443 13.6112L30.538 13.5766L30.4443 13.5452C29.8659 13.3426 29.4007 12.9226 29.1345 12.3879Z" fill="#6D79FF"/>
</svg>
