<svg width="24" height="24" viewBox="0 0 24 24" fill="none" xmlns="http://www.w3.org/2000/svg">
<path d="M17 5C17.5523 5 18 5.44772 18 6V18C18 18.5523 17.5523 19 17 19H7C6.44772 19 6 18.5523 6 18V6C6 5.48232 6.39333 5.05621 6.89746 5.00488L7 5H17ZM7.2002 17.7998H16.7998V6.2002H7.2002V17.7998ZM14.5 15.0703C14.7761 15.0703 15 15.2942 15 15.5703C15 15.8465 14.7761 16.0703 14.5 16.0703H9.5C9.22386 16.0703 9 15.8465 9 15.5703C9 15.2942 9.22386 15.0703 9.5 15.0703H14.5ZM14.5 13.0703C14.7761 13.0703 15 13.2942 15 13.5703C15 13.8465 14.7761 14.0703 14.5 14.0703H9.5C9.22386 14.0703 9 13.8465 9 13.5703C9 13.2942 9.22386 13.0703 9.5 13.0703H14.5ZM14.5 11.0703C14.7761 11.0703 15 11.2942 15 11.5703C15 11.8465 14.7761 12.0703 14.5 12.0703H9.5C9.22386 12.0703 9 11.8465 9 11.5703C9 11.2942 9.22386 11.0703 9.5 11.0703H14.5ZM13.25 7.9248C13.5261 7.9248 13.75 8.14866 13.75 8.4248C13.75 8.70095 13.5261 8.9248 13.25 8.9248H10.75C10.4739 8.9248 10.25 8.70095 10.25 8.4248C10.25 8.14866 10.4739 7.9248 10.75 7.9248H13.25Z" fill="currentColor"/>
</svg>
