<svg width="36" height="36" viewBox="0 0 36 36" fill="none" xmlns="http://www.w3.org/2000/svg">
<path d="M25.5 7.5C26.3284 7.5 27 8.17157 27 9V27C27 27.8284 26.3284 28.5 25.5 28.5H10.5C9.67157 28.5 9 27.8284 9 27V9C9 8.22348 9.59 7.58432 10.3462 7.50732L10.5 7.5H25.5ZM10.8003 26.6997H25.1997V9.30029H10.8003V26.6997ZM21.75 22.6055C22.1642 22.6055 22.5 22.9413 22.5 23.3555C22.5 23.7697 22.1642 24.1055 21.75 24.1055H14.25C13.8358 24.1055 13.5 23.7697 13.5 23.3555C13.5 22.9413 13.8358 22.6055 14.25 22.6055H21.75ZM21.75 19.6055C22.1642 19.6055 22.5 19.9413 22.5 20.3555C22.5 20.7697 22.1642 21.1055 21.75 21.1055H14.25C13.8358 21.1055 13.5 20.7697 13.5 20.3555C13.5 19.9413 13.8358 19.6055 14.25 19.6055H21.75ZM21.75 16.6055C22.1642 16.6055 22.5 16.9413 22.5 17.3555C22.5 17.7697 22.1642 18.1055 21.75 18.1055H14.25C13.8358 18.1055 13.5 17.7697 13.5 17.3555C13.5 16.9413 13.8358 16.6055 14.25 16.6055H21.75ZM19.875 11.8872C20.2892 11.8872 20.625 12.223 20.625 12.6372C20.625 13.0514 20.2892 13.3872 19.875 13.3872H16.125C15.7108 13.3872 15.375 13.0514 15.375 12.6372C15.375 12.223 15.7108 11.8872 16.125 11.8872H19.875Z" fill="#3C3C3C"/>
</svg>
