<svg width="36" height="36" viewBox="0 0 36 36" fill="none" xmlns="http://www.w3.org/2000/svg">
<path d="M18.7 8C21.7928 8 24.3 10.5584 24.3 13.7143C24.3 15.2585 23.6977 16.6577 22.7223 17.6861C24.1036 18.7267 25 20.3992 25 22.2857C25 25.4416 22.4928 28 19.4 28H11V8H18.7ZM13.8 25.1429H19.4C20.9464 25.1429 22.2 23.8637 22.2 22.2857C22.2 20.7078 20.9464 19.4286 19.4 19.4286H13.8V25.1429ZM13.8 16.5714H18.7C20.2464 16.5714 21.5 15.2922 21.5 13.7143C21.5 12.1363 20.2464 10.8571 18.7 10.8571H13.8V16.5714Z" fill="#76767C"/>
</svg>
