<svg width="24" height="24" viewBox="0 0 24 24" fill="none" xmlns="http://www.w3.org/2000/svg">
<path d="M17.8954 7.16423C17.8954 6.57921 17.4208 6.1046 16.8358 6.1046H7.16423C6.57921 6.1046 6.1046 6.57921 6.1046 7.16423V16.8358C6.1046 17.4208 6.57921 17.8954 7.16423 17.8954H16.8358C17.4208 17.8954 17.8954 17.4208 17.8954 16.8358V7.16423ZM19 16.8358C19 18.0312 18.0312 19 16.8358 19H7.16423C5.96876 19 5 18.0312 5 16.8358V7.16423C5 5.96876 5.96876 5 7.16423 5H16.8358C18.0312 5 19 5.96876 19 7.16423V16.8358Z" fill="currentColor"/>
</svg>
