<svg width="24" height="24" viewBox="0 0 24 24" fill="none" xmlns="http://www.w3.org/2000/svg">
<path d="M10.6007 12.2411C11.1162 12.2411 11.5341 12.6732 11.5341 13.2063V18.0345L11.5295 18.1335C11.4846 18.5873 11.1354 18.9488 10.6964 18.995L10.6007 18.9998H5.93407L5.83836 18.995C5.36799 18.9455 5.00096 18.534 5.00073 18.0345V13.2063C5.00073 12.6732 5.4186 12.2411 5.93407 12.2411H10.6007ZM18.0674 12.2411C18.5829 12.2411 19.0007 12.6732 19.0007 13.2063V18.0345L18.9962 18.1335C18.9513 18.5873 18.602 18.9488 18.1631 18.995L18.0674 18.9998H13.4007L13.305 18.995C12.8347 18.9455 12.4676 18.534 12.4674 18.0345V13.2063C12.4674 12.6732 12.8853 12.2411 13.4007 12.2411H18.0674ZM6.12091 17.8413H10.4139V13.3996H6.12091V17.8413ZM13.5876 17.8413H17.8806V13.3996H13.5876V17.8413ZM10.6007 5.0007C11.1162 5.0007 11.5341 5.43286 11.5341 5.96596V10.7941L11.5295 10.8931C11.4846 11.347 11.1354 11.7085 10.6964 11.7547L10.6007 11.7594H5.93407L5.83836 11.7547C5.36799 11.7051 5.00096 11.2936 5.00073 10.7941V5.96596C5.00073 5.43286 5.4186 5.0007 5.93407 5.0007H10.6007ZM18.0674 4.99976C18.5829 4.99976 19.0007 5.43192 19.0007 5.96501V10.7932L18.9962 10.8922C18.9515 11.3462 18.6022 11.7075 18.1631 11.7537L18.0674 11.7584H13.4007L13.305 11.7537C12.8345 11.7042 12.4674 11.2929 12.4674 10.7932V5.96501C12.4674 5.43192 12.8853 4.99976 13.4007 4.99976H18.0674ZM6.12091 10.6009H10.4139V6.1592H6.12091V10.6009ZM13.5876 10.5999H17.8806V6.15825H13.5876V10.5999Z" fill="currentColor"/>
</svg>
