<svg width="24" height="24" viewBox="0 0 24 24" fill="none" xmlns="http://www.w3.org/2000/svg">
<path d="M5 7C5 5.89543 5.89543 5 7 5H17C18.1046 5 19 5.89543 19 7V17C19 18.1046 18.1046 19 17 19H7C5.89543 19 5 18.1046 5 17V7Z" fill="#4453FF"/>
<path d="M18.5 7C18.5 6.17157 17.8284 5.5 17 5.5H7C6.17157 5.5 5.5 6.17157 5.5 7V17C5.5 17.8284 6.17157 18.5 7 18.5H17C17.8284 18.5 18.5 17.8284 18.5 17V7ZM19.5 17C19.5 18.3807 18.3807 19.5 17 19.5H7C5.61929 19.5 4.5 18.3807 4.5 17V7C4.5 5.61929 5.61929 4.5 7 4.5H17C18.3807 4.5 19.5 5.61929 19.5 7V17Z" fill="#969EFF"/>
<path d="M10.8268 13.6904L15.3569 9.16036C15.4638 9.05345 15.5885 9 15.731 9C15.8736 9 15.9983 9.05345 16.1052 9.16036C16.2121 9.26726 16.2655 9.3943 16.2655 9.54147C16.2655 9.68864 16.2121 9.8155 16.1052 9.92205L11.201 14.8396C11.0941 14.9465 10.9693 15 10.8268 15C10.6843 15 10.5595 14.9465 10.4526 14.8396L8.15419 12.5412C8.04728 12.4343 7.99597 12.3074 8.00025 12.1606C8.00452 12.0138 8.06029 11.8868 8.16755 11.7795C8.27481 11.6722 8.40185 11.6188 8.54867 11.6192C8.69548 11.6195 8.82234 11.673 8.92924 11.7795L10.8268 13.6904Z" fill="white"/>
</svg>
