<svg width="24" height="24" viewBox="0 0 24 24" fill="none" xmlns="http://www.w3.org/2000/svg">
<path d="M16.9666 6.17724C17.2029 5.94094 17.5865 5.94098 17.8228 6.17724C18.059 6.41357 18.0591 6.79718 17.8228 7.03347L12.8562 12.0001L17.8228 16.9667C18.0589 17.2031 18.0591 17.5867 17.8228 17.8229C17.5865 18.0588 17.2028 18.0589 16.9666 17.8229L11.9999 12.8563L7.0333 17.8229C6.79699 18.059 6.41332 18.0591 6.17708 17.8229C5.94091 17.5867 5.94104 17.203 6.17708 16.9667L11.1437 12.0001L6.17708 7.03347C5.94089 6.79728 5.94117 6.41359 6.17708 6.17724C6.4134 5.94092 6.79698 5.94092 7.0333 6.17724L11.9999 11.1439L16.9666 6.17724Z" fill="currentColor"/>
</svg>
