<svg width="36" height="36" viewBox="0 0 36 36" fill="none" xmlns="http://www.w3.org/2000/svg">
<path d="M17.5047 9.20018C19.6765 6.93191 23.255 6.93203 25.4269 9.20018C27.5249 11.3913 27.5244 14.8868 25.4254 17.0769L19.8034 22.9423C18.3904 24.4164 16.0838 24.4818 14.5934 23.0889C13.0353 21.6326 12.9699 19.1511 14.4479 17.6105L19.0147 12.8499C19.378 12.4712 19.974 12.4641 20.3456 12.8343C20.7172 13.2044 20.7241 13.8116 20.3609 14.1902L15.7925 18.9509C15.0578 19.7172 15.0913 20.9509 15.8661 21.6752C16.6073 22.368 17.7544 22.3364 18.4573 21.6035L24.0793 15.7381C25.4645 14.2928 25.4652 11.985 24.0808 10.539C22.6474 9.04192 20.2843 9.04192 18.8509 10.539L12.4111 17.2641C10.3944 19.3705 10.3683 22.7237 12.3514 24.8631C14.4526 27.1297 17.9835 27.1587 20.1204 24.927L25.0318 19.7966C25.3947 19.4179 25.9908 19.4113 26.3627 19.781C26.734 20.1505 26.7416 20.7565 26.3795 21.1354L21.4681 26.2658C18.5842 29.2778 13.8194 29.2375 10.9838 26.1784C8.30773 23.2914 8.34333 18.7678 11.0649 15.9253L17.5047 9.20018Z" fill="#76767C"/>
</svg>
