<svg width="24" height="24" viewBox="0 0 24 24" fill="none" xmlns="http://www.w3.org/2000/svg">
<path d="M11.6423 6.13411C13.2108 4.62192 15.7953 4.62201 17.3639 6.13411C18.8791 7.59482 18.8787 9.92521 17.3628 11.3852L13.3025 15.2955C12.282 16.2783 10.616 16.3219 9.53969 15.3933C8.41441 14.4224 8.36714 12.768 9.43462 11.741L12.7329 8.56722C12.9952 8.31481 13.4256 8.31008 13.694 8.55682C13.9624 8.80356 13.9674 9.20837 13.7051 9.46079L10.4057 12.6346C9.87509 13.1454 9.89929 13.9679 10.4588 14.4508C10.9941 14.9126 11.8226 14.8916 12.3303 14.403L16.3906 10.4927C17.391 9.52918 17.3915 7.99068 16.3917 7.02663C15.3565 6.0286 13.6497 6.0286 12.6145 7.02663L7.96357 11.5101C6.50704 12.9143 6.48822 15.1498 7.92043 16.576C9.43802 18.0871 11.9881 18.1065 13.5314 16.6187L17.0785 13.1984C17.3406 12.9459 17.7711 12.9415 18.0397 13.188C18.3079 13.4343 18.3134 13.8383 18.0519 14.0909L14.5048 17.5112C12.422 19.5192 8.98071 19.4923 6.93273 17.4529C5.00003 15.5283 5.02574 12.5125 6.99135 10.6175L11.6423 6.13411Z" fill="#909094"/>
</svg>
