<svg width="24" height="24" viewBox="0 0 24 24" fill="none" xmlns="http://www.w3.org/2000/svg">
<path d="M14.1211 15.0166C14.4725 15.0166 14.7576 15.3482 14.7578 15.7578C14.7578 16.1676 14.4726 16.5 14.1211 16.5H9.87891C9.52743 16.5 9.24316 16.1676 9.24316 15.7578C9.24333 15.3482 9.52753 15.0166 9.87891 15.0166H14.1211ZM16.2422 11.2588C16.5936 11.2588 16.8787 11.5904 16.8789 12C16.8789 12.4098 16.5937 12.7422 16.2422 12.7422H7.75781C7.40634 12.7422 7.12109 12.4098 7.12109 12C7.12125 11.5904 7.40644 11.2588 7.75781 11.2588H16.2422ZM18.3643 7.5C18.7156 7.50015 19 7.83249 19 8.24219C18.9998 8.65168 18.7155 8.98324 18.3643 8.9834H5.63574C5.28451 8.98324 5.0002 8.65168 5 8.24219C5 7.83249 5.28438 7.50015 5.63574 7.5H18.3643Z" fill="currentColor"/>
</svg>
