<svg width="24" height="24" viewBox="0 0 24 24" fill="none" xmlns="http://www.w3.org/2000/svg">
<path d="M11.6532 6.13122C13.2193 4.62291 15.7995 4.62294 17.3656 6.13122C18.8844 7.59409 18.8773 9.93007 17.349 11.3841L12.8254 15.6875C11.8038 16.6592 10.1467 16.6971 9.07544 15.7738C7.944 14.7985 7.90386 13.1348 8.98689 12.1121L12.7424 8.56578C13.0073 8.31565 13.438 8.31479 13.7042 8.5637C13.9703 8.81263 13.9713 9.21734 13.7064 9.46744L9.95094 13.0127C9.4129 13.5207 9.43313 14.3482 9.99521 14.8326C10.5273 15.2909 11.3496 15.2714 11.8569 14.7889L16.3805 10.4866C17.388 9.52821 17.3937 7.98787 16.3927 7.02351C15.3604 6.02925 13.6585 6.02925 12.6261 7.02351L7.96529 11.512C6.50774 12.9159 6.48891 15.1508 7.92213 16.5767C9.44078 18.0873 11.9926 18.1067 13.5371 16.6193L17.0867 13.1999C17.3489 12.9475 17.7797 12.9431 18.0485 13.1895C18.3169 13.4358 18.3224 13.8396 18.0607 14.0922L14.5111 17.5116C12.4268 19.519 8.98315 19.4922 6.93373 17.4533C4.99968 15.5292 5.0254 12.5142 6.99239 10.6197L11.6532 6.13122Z" fill="currentColor"/>
</svg>
