<svg width="36" height="36" viewBox="0 0 36 36" fill="none" xmlns="http://www.w3.org/2000/svg">
<path d="M27.153 7.50732C27.9092 7.58432 28.4992 8.22346 28.4992 8.99994V26.9992L28.4918 27.153C28.42 27.8586 27.8586 28.42 27.153 28.4918L26.9992 28.4992H8.99994C8.22346 28.4992 7.58432 27.9092 7.50732 27.153L7.5 26.9992V8.99994C7.5 8.17155 8.17155 7.5 8.99994 7.5H26.9992L27.153 7.50732ZM16.4821 17.503C16.2579 17.2789 15.8978 17.2668 15.6603 17.4767L9.30022 23.1029V26.6989H26.6989V23.1527L24.3714 20.3388C24.1461 20.0663 23.7339 20.0464 23.4837 20.2964L22.6517 21.1269L23.327 21.8022C23.6782 22.1537 23.6784 22.7237 23.327 23.0751C22.9756 23.4262 22.4055 23.4261 22.0541 23.0751L16.4821 17.503ZM9.30022 20.7006L14.468 16.1291C15.4181 15.2888 16.8581 15.3332 17.755 16.2301L21.3788 19.854L22.2123 19.0235C23.2129 18.0237 24.8572 18.1019 25.7586 19.1919L26.6989 20.3286V9.30022H9.30022V20.7006ZM22.4994 11.9998C23.3278 11.9998 23.9993 12.6714 23.9993 13.4998C23.9993 14.3282 23.3278 14.9997 22.4994 14.9997C21.671 14.9997 20.9995 14.3282 20.9995 13.4998C20.9995 12.6714 21.671 11.9998 22.4994 11.9998Z" fill="#76767C"/>
</svg>
