<svg width="24" height="24" viewBox="0 0 24 24" fill="none" xmlns="http://www.w3.org/2000/svg">
<path d="M18.1025 5.00488C18.6067 5.05621 19 5.48232 19 6V18L18.9951 18.1025C18.9472 18.573 18.573 18.9472 18.1025 18.9951L18 19H6C5.48232 19 5.05621 18.6067 5.00488 18.1025L5 18V6C5 5.44772 5.44772 5 6 5H18L18.1025 5.00488ZM10.9883 11.6689C10.8389 11.5195 10.5988 11.5115 10.4404 11.6514L6.2002 15.4023V17.7998H17.7998V15.4355L16.248 13.5596C16.0978 13.3779 15.823 13.3646 15.6562 13.5312L15.1016 14.085L15.5518 14.5352C15.7859 14.7695 15.786 15.1495 15.5518 15.3838C15.3175 15.6179 14.9374 15.6179 14.7031 15.3838L10.9883 11.6689ZM6.2002 13.8008L9.64551 10.7529C10.2789 10.1927 11.239 10.2224 11.8369 10.8203L14.2529 13.2363L14.8086 12.6826C15.4757 12.0161 16.5719 12.0682 17.1729 12.7949L17.7998 13.5527V6.2002H6.2002V13.8008ZM15 8C15.5523 8 16 8.44772 16 9C16 9.55228 15.5523 10 15 10C14.4477 10 14 9.55228 14 9C14 8.44772 14.4477 8 15 8Z" fill="currentColor"/>
</svg>
