<svg width="24" height="24" viewBox="0 0 24 24" fill="none" xmlns="http://www.w3.org/2000/svg">
<path d="M15 8C15.5523 8 16 8.44772 16 9C16 9.55228 15.5523 10 15 10C14.4477 10 14 9.55228 14 9C14 8.44772 14.4477 8 15 8Z" fill="#909094"/>
<path fill-rule="evenodd" clip-rule="evenodd" d="M18.1025 5.00488C18.6067 5.05621 19 5.48232 19 6V18L18.9951 18.1025C18.9472 18.573 18.573 18.9472 18.1025 18.9951L18 19H6C5.48232 19 5.05621 18.6067 5.00488 18.1025L5 18V6C5 5.44772 5.44772 5 6 5H18L18.1025 5.00488ZM10.9883 11.668C10.8388 11.5188 10.5987 11.5116 10.4404 11.6514L6.2002 15.4023V17.7998H17.7998V15.4346L16.248 13.5586C16.0978 13.3771 15.823 13.3648 15.6562 13.5312L15.1016 14.084L15.5518 14.5342C15.786 14.7684 15.7857 15.1485 15.5518 15.3828C15.3174 15.6171 14.9374 15.6171 14.7031 15.3828L10.9883 11.668ZM6.2002 13.8008L9.64551 10.7529C10.2788 10.1928 11.2389 10.2217 11.8369 10.8193L14.2539 13.2363L14.8086 12.6816C15.4757 12.0155 16.572 12.0675 17.1729 12.7939L17.7998 13.5518V6.2002H6.2002V13.8008Z" fill="#909094"/>
</svg>
