<svg width="93" height="12" viewBox="0 0 93 12" fill="none" xmlns="http://www.w3.org/2000/svg">
<path d="M80.7975 12C80.6958 12 80.6133 11.9175 80.6133 11.8157V0.184258C80.6133 0.0824953 80.6958 0 80.7975 0H89.1824C91.0059 0 91.9176 0.727273 91.9176 2.18182V4.99605C91.9176 5.72332 91.7068 6.26614 91.2852 6.62451C90.9258 6.93787 90.3689 7.11825 89.6146 7.16567C89.4691 7.17481 89.3828 7.33795 89.463 7.45967L92.2669 11.7144C92.3477 11.8369 92.2598 12 92.1131 12H89.756C89.694 12 89.6362 11.9689 89.6021 11.9171L86.5335 7.26073C86.4994 7.209 86.4416 7.17787 86.3797 7.17787H82.9952C82.8934 7.17787 82.8109 7.26036 82.8109 7.36213V11.8157C82.8109 11.9175 82.7284 12 82.6267 12H80.7975ZM82.8109 5.09637C82.8109 5.19814 82.8934 5.28063 82.9952 5.28063H88.9927C89.4776 5.28063 89.72 5.08564 89.72 4.69565V2.48221C89.72 2.09223 89.4776 1.89723 88.9927 1.89723H82.9952C82.8934 1.89723 82.8109 1.97973 82.8109 2.08149V5.09637Z" fill="#4453FF"/>
<path d="M65.1454 12C65.0104 12 64.9212 11.8595 64.9787 11.7373L70.4496 0.105834C70.48 0.0412358 70.545 0 70.6164 0H72.659C72.7304 0 72.7955 0.0413172 72.8258 0.106014L78.2814 11.7375C78.3387 11.8597 78.2496 12 78.1146 12H76.2601C76.189 12 76.1242 11.959 76.0937 11.8948L74.8498 9.27518C74.8192 9.21092 74.7545 9.16996 74.6833 9.16996H68.5769C68.5055 9.16996 68.4405 9.21126 68.4101 9.27594L67.1815 11.894C67.1512 11.9587 67.0862 12 67.0147 12H65.1454ZM69.4374 7.04156C69.3799 7.16377 69.469 7.30435 69.6041 7.30435H73.6713C73.8064 7.30435 73.8956 7.16377 73.838 7.04156L71.8044 2.72532C71.738 2.58435 71.5375 2.58435 71.471 2.72532L69.4374 7.04156Z" fill="#4453FF"/>
<path d="M53.3495 1.89723C53.1867 1.89723 53.0547 1.76524 53.0547 1.60242V0.294814C53.0547 0.131993 53.1867 0 53.3495 0H64.2223C64.3851 0 64.5171 0.131993 64.5171 0.294814V1.60242C64.5171 1.76524 64.3851 1.89723 64.2223 1.89723H60.1954C60.0325 1.89723 59.9005 2.02923 59.9005 2.19205V11.7052C59.9005 11.868 59.7685 12 59.6057 12H57.9819C57.8191 12 57.6871 11.868 57.6871 11.7052V2.19205C57.6871 2.02923 57.5551 1.89723 57.3923 1.89723H53.3495Z" fill="#4453FF"/>
<path d="M40.7245 12C40.5617 12 40.4297 11.868 40.4297 11.7052V10.3976C40.4297 10.2348 40.5617 10.1028 40.7245 10.1028H48.7933C49.2782 10.1028 49.5206 9.90777 49.5206 9.51779V7.11463C49.5206 6.73518 49.2782 6.54546 48.7933 6.54546H43.1491C41.3361 6.54546 40.4297 5.81818 40.4297 4.36364V2.18182C40.4297 0.727273 41.3361 0 43.1491 0H50.5222C50.685 0 50.817 0.131993 50.817 0.294814V1.60242C50.817 1.76524 50.685 1.89723 50.5222 1.89723H43.3546C42.8697 1.89723 42.6273 2.09223 42.6273 2.48221V4.07905C42.6273 4.46904 42.8697 4.66403 43.3546 4.66403H48.9989C50.8118 4.66403 51.7182 5.3913 51.7182 6.84585V9.81818C51.7182 11.2727 50.8118 12 48.9989 12H40.7245Z" fill="#4453FF"/>
<path d="M26.3789 9.81818V0.294814C26.3789 0.131993 26.5109 0 26.6737 0H28.2817C28.4445 0 28.5765 0.131993 28.5765 0.294814V9.51779C28.5765 9.90777 28.819 10.1028 29.3038 10.1028H34.7584C35.2432 10.1028 35.4856 9.90777 35.4856 9.51779V0.294813C35.4856 0.131992 35.6176 0 35.7804 0H37.3884C37.5513 0 37.6833 0.131993 37.6833 0.294814V9.81818C37.6833 11.2727 36.7768 12 34.9639 12H29.1141C27.2906 12 26.3789 11.2727 26.3789 9.81818Z" fill="#4453FF"/>
<path d="M14.3339 12C14.1711 12 14.0391 11.868 14.0391 11.7052V0.294813C14.0391 0.131992 14.1711 0 14.3339 0H15.9419C16.1047 0 16.2367 0.131993 16.2367 0.294814V9.82376C16.2367 9.98659 16.3687 10.1186 16.5315 10.1186H23.6573C23.8201 10.1186 23.9521 10.2506 23.9521 10.4134V11.7052C23.9521 11.868 23.8201 12 23.6573 12H14.3339Z" fill="#4453FF"/>
<path d="M0 9.81818V2.18182C0 0.727273 0.911726 0 2.73518 0H10.804C10.9668 0 11.0988 0.131993 11.0988 0.294814V1.58661C11.0988 1.74943 10.9668 1.88142 10.804 1.88142H2.9249C2.44005 1.88142 2.19763 2.07642 2.19763 2.4664V9.5336C2.19763 9.92358 2.44005 10.1186 2.9249 10.1186H10.804C10.9668 10.1186 11.0988 10.2506 11.0988 10.4134V11.7052C11.0988 11.868 10.9668 12 10.804 12H2.73518C0.911726 12 0 11.2727 0 9.81818Z" fill="#4453FF"/>
</svg>
