<svg width="36" height="36" viewBox="0 0 36 36" fill="none" xmlns="http://www.w3.org/2000/svg">
<path fill-rule="evenodd" clip-rule="evenodd" d="M19.1864 0C19.4426 0 19.6492 0.208893 19.6493 0.46582V5.85352C19.6493 11.2204 23.9704 15.5712 29.3007 15.5713L29.3017 15.5723H35.537C35.7932 15.5723 35.9999 15.7811 35.9999 16.0381C35.9999 16.2961 35.7923 16.5039 35.537 16.5039H28.9452C28.2118 16.5039 27.4988 16.5922 26.8144 16.7539C32.2404 22.301 34.3821 28.8892 31.578 32.8633C28.1378 37.7378 18.5557 36.8317 10.1767 30.8369V30.8379C1.7967 24.8431 -2.20695 16.0317 1.23329 11.1562C3.98564 7.25568 10.6676 7.05952 17.5214 10.2051C18.1737 8.89587 18.5438 7.41903 18.5438 5.85449V0.46582C18.5439 0.207913 18.7515 0 19.0067 0H19.1864ZM26.6337 16.7959C22.6184 17.8307 19.6494 21.4981 19.6493 25.8633V30.7891C24.2545 32.246 28.357 31.79 30.1776 29.21C32.2942 26.2105 30.703 21.2221 26.6337 16.7959ZM4.1913 16.5039C5.14359 20.0106 8.14141 24.0159 12.5331 27.1582C14.5107 28.573 16.5603 29.6605 18.5438 30.4072V26.2217C18.5438 20.8548 14.2227 16.5041 8.89247 16.5039H4.1913ZM17.4804 10.2852C12.0389 7.93239 6.90362 8.08261 4.80361 11.0586C3.93616 12.2876 3.69235 13.8505 3.98525 15.5723H8.89247C12.637 15.5721 15.8802 13.4233 17.4804 10.2852Z" fill="#4453FF"/>
</svg>
