<svg width="36" height="36" viewBox="0 0 36 36" fill="none" xmlns="http://www.w3.org/2000/svg">
<path d="M21.5566 7.50732C21.9122 7.544 22.2448 7.70799 22.4927 7.97021L26.5898 12.3047C26.853 12.5831 26.9999 12.9515 27 13.3345V27C27 27.8284 26.3284 28.5 25.5 28.5H10.5C9.67157 28.5 9 27.8284 9 27V9C9 8.17157 9.67157 7.5 10.5 7.5H21.4028L21.5566 7.50732ZM10.8003 26.6997H25.1997V15.1626H21.2461C20.3349 15.1626 19.5969 14.4243 19.5967 13.5132V9.30029H10.8003V26.6997ZM21.4761 21.1816C21.818 21.2515 22.0752 21.5545 22.0752 21.917C22.0749 22.2793 21.8178 22.5826 21.4761 22.6523L21.3252 22.667H14.5752C14.1612 22.667 13.8255 22.3309 13.8252 21.917C13.8252 21.5028 14.161 21.167 14.5752 21.167H21.3252L21.4761 21.1816ZM21.4761 17.499C21.818 17.5688 22.0752 17.8718 22.0752 18.2344C22.0751 18.5969 21.818 18.8999 21.4761 18.9697L21.3252 18.9844H14.5752C14.161 18.9844 13.8253 18.6485 13.8252 18.2344C13.8252 17.8202 14.161 17.4844 14.5752 17.4844H21.3252L21.4761 17.499ZM16.8252 13.8018C17.2394 13.8018 17.5752 14.1375 17.5752 14.5518C17.5752 14.966 17.2394 15.3018 16.8252 15.3018H14.5752C14.161 15.3018 13.8252 14.966 13.8252 14.5518C13.8252 14.1375 14.161 13.8018 14.5752 13.8018H16.8252ZM21.3955 13.3623H25.1133L21.3955 9.4292V13.3623Z" fill="#595959"/>
</svg>
