<svg width="24" height="24" viewBox="0 0 24 24" fill="none" xmlns="http://www.w3.org/2000/svg">
<path d="M11.9649 6.05769C12.2957 6.05797 12.564 6.32649 12.5642 6.65769C12.5642 6.98909 12.2959 7.2574 11.9649 7.25768H6.59952C6.37887 7.25768 6.19959 7.43749 6.19934 7.65833V17.8994C6.19934 18.1204 6.37872 18.3 6.59952 18.3H16.8286C17.0492 18.2997 17.2288 18.1203 17.2288 17.8994V10.33C17.2293 9.9988 17.4972 9.72999 17.8281 9.72999C18.1588 9.73025 18.427 9.99895 18.4274 10.33V17.8994C18.4274 18.7834 17.7116 19.4997 16.8286 19.5H6.59952C5.71632 19.5 5.00073 18.7836 5.00073 17.8994V7.65833C5.00098 6.77432 5.71647 6.05769 6.59952 6.05769H11.9649ZM15.878 4.64759C16.0691 4.45497 16.3788 4.45037 16.5758 4.63684L18.8452 6.79058C19.0476 6.9829 19.0531 7.30432 18.8579 7.50394L13.8975 12.5687C13.8292 12.6385 13.742 12.6868 13.6467 12.7075L10.6804 13.3495L10.6121 13.3593C10.2769 13.3858 10.0021 13.0705 10.0919 12.7319L10.8727 9.78764C10.8952 9.70303 10.94 9.62601 11.0016 9.56387L15.878 4.64759ZM11.9844 10.2753L11.5433 11.9336L13.1879 11.5779L17.5021 7.17169L16.2469 5.97951L11.9844 10.2753Z" fill="currentColor"/>
</svg>
