<svg width="36" height="36" viewBox="0 0 36 36" fill="none" xmlns="http://www.w3.org/2000/svg">
<path d="M17.9461 9.28363C18.4423 9.28405 18.8446 9.67787 18.845 10.1636C18.845 10.6497 18.4425 11.0432 17.9461 11.0436H9.89813C9.56717 11.0436 9.29824 11.3073 9.29787 11.6312V26.6514C9.29787 26.9756 9.56694 27.239 9.89813 27.239H25.2415C25.5724 27.2387 25.8418 26.9754 25.8418 26.6514V15.5497C25.8425 15.0639 26.2443 14.6697 26.7407 14.6697C27.2367 14.6701 27.6389 15.0642 27.6396 15.5497V26.6514C27.6396 27.948 26.5659 28.9986 25.2415 28.999H9.89813C8.57336 28.999 7.5 27.9483 7.5 26.6514V11.6312C7.50038 10.3347 8.57359 9.28363 9.89813 9.28363H17.9461ZM23.8155 7.21549C24.1022 6.93298 24.5668 6.92624 24.8623 7.19973L28.2663 10.3585C28.5699 10.6406 28.5781 11.112 28.2853 11.4048L20.8449 18.8332C20.7424 18.9354 20.6117 19.0064 20.4687 19.0367L16.0194 19.9783L15.9169 19.9927C15.4141 20.0316 15.0019 19.5691 15.1365 19.0725L16.3078 14.7542C16.3415 14.6301 16.4087 14.5172 16.5011 14.426L23.8155 7.21549ZM17.9754 15.4694L17.3136 17.9016L19.7805 17.3799L26.2517 10.9175L24.3689 9.16897L17.9754 15.4694Z" fill="#595959"/>
</svg>
