<svg width="36" height="36" viewBox="0 0 36 36" fill="none" xmlns="http://www.w3.org/2000/svg">
<path d="M13.9438 14.478C14.2842 13.3201 15.9895 13.3201 16.3299 14.478L17.3938 18.0937C17.5035 18.466 17.7947 18.7641 18.1738 18.8932L21.9492 20.1808C23.0497 20.5567 23.0501 22.0551 21.9492 22.4306L18.1738 23.7167C17.7946 23.8459 17.5033 24.1438 17.3938 24.5162L16.3299 28.1319C16.0105 29.2166 14.493 29.285 14.0235 28.336L13.9438 28.1319L12.8799 24.5162C12.784 24.1903 12.55 23.9206 12.2387 23.7719L12.1015 23.7167L8.32611 22.4306C7.22455 22.0553 7.22471 20.5563 8.32611 20.1808L12.1015 18.8932C12.4803 18.764 12.7703 18.4657 12.8799 18.0937L13.9438 14.478ZM14.9263 18.6508C14.6289 19.6615 13.8404 20.4715 12.8113 20.8223L11.3933 21.3042L12.8113 21.7876C13.8405 22.1384 14.629 22.9483 14.9263 23.9591L15.1369 24.6743L15.3474 23.9591C15.6447 22.9481 16.4346 22.1384 17.464 21.7876L18.8804 21.3042L17.464 20.8223C16.4346 20.4716 15.6448 19.6617 15.3474 18.6508L15.1369 17.9341L14.9263 18.6508ZM22.458 7.53831C22.669 6.82056 23.7256 6.82056 23.9366 7.53831L24.7325 10.2454C24.8005 10.4758 24.9813 10.661 25.2158 10.7411L27.3994 11.4839L27.9879 11.685C28.6707 11.9176 28.6707 12.8473 27.9879 13.08L27.3994 13.2795L25.2158 14.0253C24.9811 14.1056 24.8003 14.2904 24.7325 14.521L23.9366 17.2281L23.8871 17.354C23.6152 17.9024 22.7771 17.9031 22.5059 17.354L22.458 17.2281L21.6621 14.521C21.6112 14.3477 21.4962 14.2002 21.3431 14.1036L21.1788 14.0253L18.4066 13.08C17.7247 12.8471 17.7249 11.918 18.4066 11.685L18.992 11.4854L21.1788 10.7411C21.3549 10.6811 21.5 10.561 21.5903 10.4081L21.6621 10.2454L22.458 7.53831ZM23.1965 11.1202C22.9065 11.687 22.4007 12.1331 21.7706 12.3479L21.6685 12.3817L21.7706 12.417C22.4005 12.6317 22.9064 13.0767 23.1965 13.6432C23.4865 13.0767 23.9942 12.6318 24.624 12.417L24.7245 12.3817L24.624 12.3479C23.9936 12.1329 23.4864 11.6874 23.1965 11.1202Z" fill="#6D79FF"/>
</svg>
