<svg width="28" height="28" viewBox="0 0 28 28" fill="none" xmlns="http://www.w3.org/2000/svg">
<path d="M14 5.99902C14.3806 5.99902 14.6887 6.3073 14.6888 6.68785V13.3102H21.3101C21.6907 13.3102 22 13.6183 22 13.999C22 14.3797 21.6907 14.6878 21.3101 14.6878H14.6888V21.3091C14.6888 21.6898 14.3807 21.999 14 21.999C13.6194 21.999 13.3112 21.6897 13.3112 21.3091V14.6878H6.68882C6.30834 14.6876 6 14.3796 6 13.999C6 13.6185 6.30834 13.3104 6.68882 13.3102H13.3112V6.68785C13.3113 6.30735 13.6195 5.9991 14 5.99902Z" fill="#595959"/>
</svg>
