<svg width="24" height="24" viewBox="0 0 24 24" fill="none" xmlns="http://www.w3.org/2000/svg">
<path d="M11.999 5C12.3304 5 12.5986 5.26824 12.5986 5.59961V11.3994H18.3994C18.7305 11.3997 18.999 11.6679 18.999 11.999C18.999 12.3302 18.7305 12.5983 18.3994 12.5986H12.5986V18.3994C12.5982 18.7304 12.3301 18.999 11.999 18.999C11.6679 18.999 11.3998 18.7304 11.3994 18.3994V12.5986H5.59961C5.26824 12.5986 5 12.3304 5 11.999C5 11.6677 5.26824 11.3994 5.59961 11.3994H11.3994V5.59961C11.3994 5.26824 11.6677 5 11.999 5Z" fill="currentColor"/>
</svg>
