<svg width="24" height="24" viewBox="0 0 24 24" fill="none" xmlns="http://www.w3.org/2000/svg">
<path d="M12 5C15.866 5 19 8.13401 19 12C19 14.2385 17.9476 16.2294 16.3125 17.5107L16.3135 17.5117C15.1247 18.4432 13.6273 19 12 19C10.3727 19 8.87628 18.4432 7.6875 17.5117H7.68555V17.5098C6.05139 16.2283 5 14.2377 5 12C5 8.13401 8.13401 5 12 5ZM11.999 14.3975C10.4792 14.3976 9.21425 15.4865 8.94043 16.9268C9.82869 17.4795 10.8767 17.7998 12 17.7998C13.1225 17.7998 14.1698 17.4798 15.0576 16.9277C14.7842 15.4869 13.5193 14.3975 11.999 14.3975ZM12 6.2002C8.79675 6.2002 6.2002 8.79675 6.2002 12C6.2002 13.6103 6.85641 15.0673 7.91602 16.1182C8.49542 14.4196 10.1042 13.1984 11.999 13.1982C13.8942 13.1982 15.5026 14.4202 16.082 16.1191C17.1425 15.0682 17.7998 13.6111 17.7998 12C17.7998 8.79675 15.2033 6.2002 12 6.2002ZM12 7.88086C13.3807 7.88086 14.5 9.00015 14.5 10.3809C14.5 11.7616 13.3807 12.8809 12 12.8809C10.6193 12.8809 9.5 11.7616 9.5 10.3809C9.5 9.00015 10.6193 7.88086 12 7.88086ZM12 9.08105C11.282 9.08105 10.7002 9.66289 10.7002 10.3809C10.7002 11.0988 11.282 11.6807 12 11.6807C12.718 11.6807 13.2998 11.0988 13.2998 10.3809C13.2998 9.66289 12.718 9.08105 12 9.08105Z" fill="currentColor"/>
</svg>
