<svg width="24" height="24" viewBox="0 0 24 24" fill="none" xmlns="http://www.w3.org/2000/svg">
<path d="M12 6C13.9632 6.00012 15.7062 6.94272 16.8008 8.39941V7.13965C16.8009 6.80839 17.0691 6.54012 17.4004 6.54004C17.7317 6.54007 18.0009 6.80836 18.001 7.13965V9.5166C18.0009 9.63773 17.977 9.75819 17.9307 9.87012C17.8842 9.98212 17.8152 10.0842 17.7295 10.1699C17.6438 10.2555 17.5416 10.3238 17.4297 10.3701C17.3177 10.4164 17.1973 10.4404 17.0762 10.4404H14.7002C14.3688 10.4404 14.1006 10.1712 14.1006 9.83984C14.1008 9.50869 14.369 9.24023 14.7002 9.24023H15.9258C15.0565 8.00589 13.6225 7.19935 12 7.19922C9.34875 7.19938 7.19922 9.34939 7.19922 12.001C7.19956 14.6523 9.34896 16.8016 12 16.8018C14.4056 16.8016 16.3994 15.0307 16.7471 12.7217C16.7964 12.394 17.102 12.1685 17.4297 12.2178C17.7571 12.2673 17.9829 12.5729 17.9336 12.9004C17.4989 15.7875 15.0084 18.0018 12 18.002C8.68614 18.0018 6.00034 15.3149 6 12.001C6 8.68673 8.68593 6.00016 12 6Z" fill="currentColor"/>
</svg>
