<svg width="24" height="24" viewBox="0 0 24 24" fill="none" xmlns="http://www.w3.org/2000/svg">
<path d="M6.97377 5C7.80596 5 8.5165 5.51557 8.80691 6.24414H15.2068C15.5061 5.53514 16.2073 5.03724 17.0253 5.03711C18.1154 5.03711 18.9998 5.9207 19 7.01074C19 7.91219 18.3949 8.67098 17.5692 8.90723V15.1289C18.395 15.3651 19 16.1248 19 17.0264C18.9999 18.1165 18.1155 19 17.0253 19C16.1917 18.9999 15.4805 18.4826 15.1911 17.752H8.79519C8.49667 18.463 7.79335 18.9629 6.97377 18.9629C5.88366 18.9627 5 18.0784 5 16.9883C5.00009 16.0688 5.62948 15.2984 6.48057 15.0791V8.88281C5.62949 8.66344 5 7.89316 5 6.97363C5.00018 5.8837 5.88377 5.00018 6.97377 5ZM8.92801 7.24414C8.81932 8.03742 8.24048 8.67849 7.48064 8.87988V15.082C8.25129 15.2862 8.83625 15.9432 8.93289 16.752H15.072C15.1845 15.9431 15.7861 15.293 16.5692 15.1074V8.92969C15.7728 8.74098 15.1636 8.07197 15.0661 7.24414H8.92801Z" fill="currentColor"/>
</svg>
