<svg width="24" height="24" viewBox="0 0 24 24" fill="none" xmlns="http://www.w3.org/2000/svg">
<path d="M11.0363 5.77266C11.4499 5.4219 12.0538 5.40799 12.4825 5.74003L12.5708 5.81618L17.7831 10.7621C18.061 11.026 18.0735 11.467 17.811 11.7465C17.5486 12.026 17.1109 12.0383 16.8328 11.7746L12.4888 7.65276V17.8038C12.4886 18.1881 12.1785 18.4998 11.7963 18.5C11.414 18.5 11.104 18.1882 11.1039 17.8038V7.69264L7.18903 11.7538C6.92284 12.0293 6.48429 12.0356 6.20987 11.7683C5.93566 11.5006 5.92943 11.0598 6.19544 10.7838L10.9506 5.85244L11.0363 5.77266Z" fill="currentColor"/>
</svg>
