<svg width="24" height="24" viewBox="0 0 24 24" fill="none" xmlns="http://www.w3.org/2000/svg">
<path d="M5.21686 15.6765C5.88908 15.6765 6.43483 16.1973 6.43483 16.8388C6.43466 17.4801 5.88898 18 5.21686 18C4.54488 17.9998 4.00017 17.48 4 16.8388C4 16.1974 4.54478 15.6767 5.21686 15.6765ZM19.3145 16.1452C19.6931 16.1454 19.9998 16.4382 20 16.7994C20 17.1608 19.6932 17.4533 19.3145 17.4535H8.71114C8.33232 17.4535 8.02568 17.1609 8.02568 16.7994C8.02592 16.4381 8.33247 16.1452 8.71114 16.1452H19.3145ZM5.21686 10.8377C5.8889 10.8377 6.43453 11.3577 6.43483 11.9989C6.43483 12.6404 5.88908 13.1612 5.21686 13.1612C4.54478 13.1611 4 12.6403 4 11.9989C4.0003 11.3578 4.54496 10.8379 5.21686 10.8377ZM19.3145 11.3459C19.6932 11.346 20 11.6386 20 12C20 12.3614 19.6932 12.654 19.3145 12.6541H8.71114C8.33232 12.6541 8.02568 12.3615 8.02568 12C8.02568 11.6385 8.33232 11.3459 8.71114 11.3459H19.3145ZM5.21686 6C5.88898 6 6.43466 6.51987 6.43483 7.16122C6.43483 7.80271 5.88908 8.32351 5.21686 8.32351C4.54478 8.32335 4 7.80261 4 7.16122C4.00017 6.51997 4.54488 6.00016 5.21686 6ZM19.3145 6.54545C19.6932 6.54561 19.9999 6.83822 20 7.19957C20 7.56097 19.6932 7.85354 19.3145 7.85369H8.71114C8.33232 7.85369 8.02568 7.56107 8.02568 7.19957C8.02573 6.83812 8.33236 6.54545 8.71114 6.54545H19.3145Z" fill="currentColor"/>
</svg>
