<svg width="36" height="36" viewBox="0 0 36 36" fill="none" xmlns="http://www.w3.org/2000/svg">
<path d="M10.4604 7.5C11.7086 7.5 12.7744 8.27336 13.21 9.36621H22.8091C23.2581 8.3027 24.3097 7.55586 25.5366 7.55566C27.1717 7.55566 28.4983 8.88106 28.4985 10.5161C28.4985 11.8683 27.5909 13.0065 26.3525 13.3608V22.6934C27.5911 23.0476 28.4985 24.1872 28.4985 25.5396C28.4984 27.1747 27.1718 28.5 25.5366 28.5C24.2863 28.4998 23.2196 27.7239 22.7856 26.6279H13.1924C12.7446 27.6946 11.6897 28.4443 10.4604 28.4443C8.82539 28.4441 7.5 27.1175 7.5 25.4824C7.50013 24.1032 8.44416 22.9476 9.7207 22.6187V13.3242C8.44417 12.9952 7.5 11.8397 7.5 10.4604C7.50026 8.82556 8.82556 7.50026 10.4604 7.5ZM13.3916 10.8662C13.2286 12.0561 12.3604 13.0177 11.2207 13.3198V22.623C12.3766 22.9293 13.254 23.9147 13.3989 25.1279H22.6069C22.7757 23.9147 23.678 22.9395 24.8525 22.6611V13.3945C23.6581 13.1115 22.7443 12.108 22.5981 10.8662H13.3916Z" fill="#3C3C3C"/>
</svg>
