<svg width="24" height="24" viewBox="0 0 24 24" fill="none" xmlns="http://www.w3.org/2000/svg">
<path d="M14.3711 5.00488C14.6081 5.02933 14.8299 5.13866 14.9951 5.31348L17.7266 8.20312C17.902 8.3887 17.9999 8.6343 18 8.88965V18C18 18.5523 17.5523 19 17 19H7C6.44772 19 6 18.5523 6 18V6C6 5.44772 6.44772 5 7 5H14.2686L14.3711 5.00488ZM7.2002 17.7998H16.7998V10.1084H14.1641C13.5566 10.1084 13.0646 9.61619 13.0645 9.00879V6.2002H7.2002V17.7998ZM12 10.4004C12.3314 10.4004 12.5996 10.6686 12.5996 11V13.5518L13.5762 12.5762C13.8105 12.3419 14.1895 12.3419 14.4238 12.5762C14.6581 12.8105 14.6581 13.1895 14.4238 13.4238L12.5654 15.2832C12.2531 15.5952 11.7469 15.5952 11.4346 15.2832L9.57617 13.4238C9.34186 13.1895 9.34186 12.8105 9.57617 12.5762C9.81049 12.3419 10.1895 12.3419 10.4238 12.5762L11.4004 13.5518V11C11.4004 10.6686 11.6686 10.4004 12 10.4004ZM14.2637 8.9082H16.7422L14.2637 6.28613V8.9082Z" fill="currentColor"/>
</svg>
