<svg width="36" height="36" viewBox="0 0 36 36" fill="none" xmlns="http://www.w3.org/2000/svg">
<path d="M9.09713 23.4584C9.97942 23.4584 10.6957 24.1962 10.6957 25.1049C10.6955 26.0135 9.97928 26.75 9.09713 26.75C8.21516 26.7498 7.50022 26.0134 7.5 25.1049C7.5 24.1963 8.21502 23.4586 9.09713 23.4584ZM27.6003 24.1224C28.0972 24.1226 28.4997 24.5374 28.5 25.0491C28.5 25.5611 28.0973 25.9755 27.6003 25.9758H13.6834C13.1862 25.9758 12.7837 25.5612 12.7837 25.0491C12.784 24.5373 13.1864 24.1224 13.6834 24.1224H27.6003ZM9.09713 16.6034C9.97918 16.6034 10.6953 17.3401 10.6957 18.2485C10.6957 19.1573 9.97942 19.8951 9.09713 19.8951C8.21502 19.8948 7.5 19.1571 7.5 18.2485C7.50039 17.3402 8.21526 16.6037 9.09713 16.6034ZM27.6003 17.3233C28.0973 17.3236 28.5 17.738 28.5 18.25C28.5 18.762 28.0973 19.1764 27.6003 19.1767H13.6834C13.1862 19.1767 12.7837 18.7621 12.7837 18.25C12.7837 17.7379 13.1862 17.3233 13.6834 17.3233H27.6003ZM9.09713 9.75C9.97928 9.75 10.6955 10.4865 10.6957 11.3951C10.6957 12.3038 9.97942 13.0416 9.09713 13.0416C8.21502 13.0414 7.5 12.3037 7.5 11.3951C7.50022 10.4866 8.21516 9.75023 9.09713 9.75ZM27.6003 10.5227C28.0973 10.5229 28.4999 10.9375 28.5 11.4494C28.5 11.9614 28.0973 12.3758 27.6003 12.3761H13.6834C13.1862 12.3761 12.7837 11.9615 12.7837 11.4494C12.7838 10.9373 13.1862 10.5227 13.6834 10.5227H27.6003Z" fill="#909094"/>
</svg>
