<svg width="36" height="36" viewBox="0 0 36 36" fill="none" xmlns="http://www.w3.org/2000/svg">
<path d="M16.4741 7.94046C17.129 7.37385 18.0851 7.35137 18.7639 7.88774L18.9038 8.01075L27.1566 16.0003C27.5966 16.4266 27.6164 17.139 27.2008 17.5906C26.7853 18.0419 26.0922 18.0619 25.6519 17.636L18.7739 10.9775V27.3754C18.7737 27.9961 18.2826 28.4997 17.6775 28.5C17.0721 28.5 16.5813 27.9963 16.5811 27.3754V11.042L10.3826 17.6023C9.96116 18.0474 9.26679 18.0575 8.83229 17.6257C8.39813 17.1933 8.38827 16.4812 8.80945 16.0354L16.3384 8.06932L16.4741 7.94046Z" fill="white"/>
</svg>
