<svg width="24" height="24" viewBox="0 0 24 24" fill="none" xmlns="http://www.w3.org/2000/svg">
<path d="M11.1217 4.99976C14.5029 4.99976 17.2445 7.71427 17.2445 11.0628L17.2366 11.3746C17.1655 12.7637 16.6215 14.0288 15.7619 15.017L18.8139 17.9567C19.0551 18.1891 19.063 18.5731 18.8307 18.8143C18.5983 19.0554 18.2141 19.0623 17.9729 18.8301L14.8785 15.8489C13.8411 16.6485 12.538 17.1258 11.1217 17.1258C7.74077 17.1257 5 14.4112 5 11.0628C5 7.71437 7.74077 4.99992 11.1217 4.99976ZM11.1217 6.21256C8.39981 6.21272 6.2131 8.39485 6.2131 11.0628C6.2131 13.7307 8.39981 15.9129 11.1217 15.913C13.8438 15.913 16.0314 13.7308 16.0314 11.0628C16.0314 8.39475 13.8438 6.21256 11.1217 6.21256Z" fill="currentColor"/>
</svg>
