<svg width="24" height="24" viewBox="0 0 24 24" fill="none" xmlns="http://www.w3.org/2000/svg">
<path d="M17.3127 11.7393C14.3788 11.7393 12.0005 9.29747 12.0005 6.28526V3.26152C12.0005 3.11727 11.8868 3 11.7458 3H11.6466C11.5061 3 11.3919 3.11672 11.3919 3.26152V6.28581C11.3919 9.29802 9.01358 11.7398 6.07972 11.7398H3.25472C3.11422 11.7398 3 11.8566 3 12.0014C3 12.1456 3.11369 12.2629 3.25472 12.2629H6.07972C9.01358 12.2629 11.3919 14.7047 11.3919 17.7169V20.7385C11.3919 20.8827 11.5056 21 11.6466 21H11.7458C11.8863 21 12.0005 20.8833 12.0005 20.7385V17.5159C12.0005 14.6149 14.2914 12.2629 17.1169 12.2629H20.7453C20.8858 12.2629 21 12.1462 21 12.0014C21 11.8571 20.8863 11.7398 20.7453 11.7398H17.3132L17.3127 11.7393Z" fill="currentColor"/>
</svg>
