<svg width="24" height="24" viewBox="0 0 24 24" fill="none" xmlns="http://www.w3.org/2000/svg">
<path d="M14.3445 7C14.5998 7 14.8447 7.11158 15.0208 7.30945L18.7442 11.4934C19.0985 11.8914 19.0857 12.5214 18.716 12.903L15.0154 16.7208L14.9479 16.7843C14.7837 16.9235 14.5794 17 14.3682 17H5.93519C5.41971 17 5.00183 16.5525 5.00183 16.0004V7.99961C5.00183 7.44754 5.41971 7 5.93519 7H14.3445ZM6.12204 15.8003H14.2926L17.8045 12.1767L14.2652 8.19973H6.12204V15.8003ZM12.9472 10.9867C13.4695 10.9867 13.8933 11.4406 13.8933 12C13.8933 12.5594 13.4696 13.0133 12.9472 13.0133C12.4251 13.013 12.002 12.5593 12.002 12C12.002 11.4407 12.4251 10.987 12.9472 10.9867Z" fill="currentColor"/>
</svg>
