<svg width="24" height="24" viewBox="0 0 24 24" fill="none" xmlns="http://www.w3.org/2000/svg">
<path d="M13.9861 5.00526C14.4901 5.06054 14.8834 5.51943 14.8834 6.07692V9.14784L14.8785 9.25721C14.8309 9.76416 14.4566 10.1668 13.9861 10.2184L13.8835 10.2248H12.5995V11.3532H15.6118C16.4953 11.3532 17.2111 12.1254 17.2112 13.0769V13.7752H18.5001L18.6027 13.7805C19.1066 13.8358 19.4999 14.2948 19.5 14.8522V17.9231L19.4951 18.0325C19.4475 18.5394 19.0732 18.942 18.6027 18.9937L18.5001 19H14.733L14.6305 18.9937C14.16 18.942 13.7856 18.5394 13.7381 18.0325L13.7332 17.9231V14.8522C13.7333 14.2948 14.1265 13.8358 14.6305 13.7805L14.733 13.7752H16.0122V13.0769C16.012 12.8391 15.8326 12.6457 15.6118 12.6457H8.38621C8.16541 12.6457 7.98601 12.8391 7.98587 13.0769V13.7752H9.26696L9.36948 13.7805C9.87347 13.8358 10.2667 14.2948 10.2668 14.8522V17.9231L10.2619 18.0325C10.2144 18.5394 9.84004 18.942 9.36948 18.9937L9.26696 19H5.49987L5.39734 18.9937C4.92679 18.942 4.55247 18.5394 4.50488 18.0325L4.5 17.9231V14.8522C4.50012 14.2948 4.89336 13.8358 5.39734 13.7805L5.49987 13.7752H6.78681V13.0769C6.78694 12.1254 7.50275 11.3532 8.38621 11.3532H11.3985V10.2248H10.1165L10.0139 10.2184C9.54336 10.1668 9.16906 9.76416 9.12147 9.25721L9.11659 9.14784V6.07692C9.11659 5.51943 9.50987 5.06054 10.0139 5.00526L10.1165 5H13.8835L13.9861 5.00526ZM5.70004 17.7075H9.06679V15.0678H5.70004V17.7075ZM14.9332 17.7075H18.3V15.0678H14.9332V17.7075ZM10.3166 8.93224H13.6834V6.29252H10.3166V8.93224Z" fill="currentColor"/>
</svg>
