<svg width="24" height="24" viewBox="0 0 24 24" fill="none" xmlns="http://www.w3.org/2000/svg">
<path d="M18.409 6.8644C18.7356 6.86454 19.0002 7.1283 19.0002 7.45402C19.0002 7.77978 18.7357 8.0435 18.409 8.04363H17.1679V17.4275C17.1676 18.2962 16.4609 19.0005 15.5898 19.0005H8.40685C7.53579 19.0005 6.83 18.2962 6.82968 17.4275V8.04363H5.59144C5.26472 8.04363 5.00024 7.77987 5.00024 7.45402C5.0003 7.12822 5.26476 6.8644 5.59144 6.8644H18.409ZM8.01207 17.4275C8.01239 17.6445 8.18923 17.8203 8.40685 17.8203H15.5898C15.8074 17.8203 15.9842 17.6445 15.9846 17.4275V8.04363H8.01207V17.4275ZM10.6946 10.0593C11.0213 10.0593 11.2858 10.323 11.2858 10.6489V15.0672C11.2855 15.3928 11.0212 15.6568 10.6946 15.6568C10.368 15.6568 10.1037 15.3928 10.1034 15.0672V10.6489C10.1034 10.323 10.3679 10.0593 10.6946 10.0593ZM13.3059 10.0593C13.6326 10.0593 13.8971 10.323 13.8971 10.6489V15.0672C13.8968 15.3928 13.6324 15.6568 13.3059 15.6568C12.9793 15.6568 12.7149 15.3928 12.7147 15.0672V10.6489C12.7147 10.323 12.9792 10.0593 13.3059 10.0593ZM15.2046 5.00049C15.5314 5.00049 15.7958 5.26426 15.7958 5.5901C15.7957 5.91587 15.5313 6.17972 15.2046 6.17972H8.79584C8.4692 6.17969 8.20474 5.91585 8.20465 5.5901C8.20465 5.26427 8.46914 5.00052 8.79584 5.00049H15.2046Z" fill="currentColor"/>
</svg>
